<?xml version="1.0" encoding="UTF-8" standalone="no"?>
<svg width="32" height="32" viewBox="0 0 32 32" xmlns="http://www.w3.org/2000/svg">
  <!-- Background championship belt -->
  <circle cx="16" cy="16" r="15" fill="#f0c419" stroke="#e64c3c" stroke-width="1"/>
  
  <!-- Belt texture -->
  <circle cx="16" cy="16" r="13" fill="#e64c3c" stroke="#f0c419" stroke-width="0.5"/>
  <circle cx="16" cy="16" r="11" fill="#f0c419" stroke="#e64c3c" stroke-width="0.5"/>
  
  <!-- WWC text -->
  <g transform="translate(16, 16) scale(0.18)">
    <!-- W -->
    <path d="M-50,-10 L-42,10 L-35,0 L-28,10 L-20,-10" 
          fill="none" stroke="#fff" stroke-width="8" stroke-linecap="round" stroke-linejoin="round"/>
    
    <!-- W -->
    <path d="M-15,-10 L-7,10 L0,0 L7,10 L15,-10" 
          fill="none" stroke="#fff" stroke-width="8" stroke-linecap="round" stroke-linejoin="round"/>
    
    <!-- C -->
    <path d="M40,-10 C30,-10 20,0 20,10 C20,20 30,30 40,30 C50,30 55,20 55,20" 
          fill="none" stroke="#fff" stroke-width="8" stroke-linecap="round" stroke-linejoin="round"/>
  </g>
  
  <!-- Center decoration -->
  <circle cx="16" cy="16" r="3" fill="#e64c3c" stroke="#fff" stroke-width="0.5"/>
  <circle cx="16" cy="16" r="1.5" fill="#f0c419"/>
</svg>
