<?xml version="1.0" encoding="UTF-8" standalone="no"?>
<svg width="200" height="200" viewBox="0 0 200 200" xmlns="http://www.w3.org/2000/svg">
  <!-- Background championship belt -->
  <circle cx="100" cy="100" r="95" fill="#f0c419" stroke="#e64c3c" stroke-width="5"/>
  
  <!-- Belt texture -->
  <circle cx="100" cy="100" r="85" fill="#e64c3c" stroke="#f0c419" stroke-width="3"/>
  <circle cx="100" cy="100" r="75" fill="#f0c419" stroke="#e64c3c" stroke-width="2"/>
  
  <!-- WWC text -->
  <g transform="translate(100, 100) scale(1.2)">
    <!-- W -->
    <path d="M-50,-10 L-42,10 L-35,0 L-28,10 L-20,-10" 
          fill="none" stroke="#fff" stroke-width="8" stroke-linecap="round" stroke-linejoin="round"/>
    
    <!-- W -->
    <path d="M-15,-10 L-7,10 L0,0 L7,10 L15,-10" 
          fill="none" stroke="#fff" stroke-width="8" stroke-linecap="round" stroke-linejoin="round"/>
    
    <!-- C -->
    <path d="M40,-10 C30,-10 20,0 20,10 C20,20 30,30 40,30 C50,30 55,20 55,20" 
          fill="none" stroke="#fff" stroke-width="8" stroke-linecap="round" stroke-linejoin="round"/>
  </g>
  
  <!-- Stars -->
  <g fill="#fff">
    <polygon points="100,25 105,35 115,37 107.5,45 110,55 100,50 90,55 92.5,45 85,37 95,35" />
    <polygon points="40,70 43,76 50,77 45,82 46,89 40,86 34,89 35,82 30,77 37,76" />
    <polygon points="160,70 163,76 170,77 165,82 166,89 160,86 154,89 155,82 150,77 157,76" />
    <polygon points="40,130 43,136 50,137 45,142 46,149 40,146 34,149 35,142 30,137 37,136" />
    <polygon points="160,130 163,136 170,137 165,142 166,149 160,146 154,149 155,142 150,137 157,136" />
  </g>
  
  <!-- Small decorative elements -->
  <circle cx="100" cy="100" r="15" fill="#e64c3c" stroke="#fff" stroke-width="3"/>
  <circle cx="100" cy="100" r="8" fill="#f0c419"/>
</svg>
